<svg xmlns="http://www.w3.org/2000/svg" width="89" height="97" viewBox="0 0 89 97">
    <defs>
        <linearGradient id="a" x1="0%" x2="74.521%" y1="0%" y2="64.11%">
            <stop offset="0%" stop-color="#5A9FD4"/>
            <stop offset="100%" stop-color="#306998"/>
        </linearGradient>
        <linearGradient id="b" x1="50%" x2="23.443%" y1="82.276%" y2="44.914%">
            <stop offset="0%" stop-color="#FFD43B"/>
            <stop offset="100%" stop-color="#FFE873"/>
        </linearGradient>
    </defs>
    <g fill="none" fill-rule="evenodd">
        <path fill="#484848" d="M2.698 81.44c-.555 0-1.036-.204-1.443-.611-.407-.407-.611-.888-.611-1.443s.204-1.04.611-1.456c.407-.416.888-.624 1.443-.624.572 0 1.062.208 1.469.624.407.416.611.901.611 1.456 0 .555-.204 1.036-.611 1.443a2.003 2.003 0 0 1-1.469.611zM1.034 96V83h3.354v13H1.034zm8.612-9.308c0 .347.23.628.689.845.46.217 1.018.407 1.677.572.659.165 1.317.373 1.976.624a3.836 3.836 0 0 1 1.677 1.261c.46.59.689 1.326.689 2.21 0 1.335-.498 2.362-1.495 3.081-.997.72-2.24 1.079-3.731 1.079-2.67 0-4.49-1.031-5.46-3.094l2.912-1.638c.381 1.127 1.23 1.69 2.548 1.69 1.196 0 1.794-.373 1.794-1.118 0-.347-.23-.628-.689-.845a9.834 9.834 0 0 0-1.677-.585 17.534 17.534 0 0 1-1.976-.65 4.057 4.057 0 0 1-1.677-1.235c-.46-.563-.689-1.27-.689-2.119 0-1.283.472-2.292 1.417-3.029.945-.737 2.119-1.105 3.523-1.105 1.057 0 2.02.238 2.886.715a5.225 5.225 0 0 1 2.054 2.041l-2.86 1.56c-.416-.884-1.11-1.326-2.08-1.326-.433 0-.793.095-1.079.286-.286.19-.429.45-.429.78zm15.112-.468H21.82v5.408c0 .45.113.78.338.988.225.208.555.325.988.351.433.026.97.022 1.612-.013V96c-2.305.26-3.93.043-4.875-.65-.945-.693-1.417-1.933-1.417-3.718v-5.408h-2.262V83h2.262v-2.626l3.354-1.014V83h2.938v3.224zM35.814 83h3.354v13h-3.354v-1.534c-1.005 1.265-2.418 1.898-4.238 1.898-1.733 0-3.22-.663-4.459-1.989-1.24-1.326-1.859-2.951-1.859-4.875s.62-3.549 1.859-4.875c1.24-1.326 2.726-1.989 4.459-1.989 1.82 0 3.233.633 4.238 1.898V83zm-6.188 9.152c.676.676 1.534 1.014 2.574 1.014 1.04 0 1.902-.342 2.587-1.027.685-.685 1.027-1.564 1.027-2.639 0-1.075-.342-1.954-1.027-2.639-.685-.685-1.547-1.027-2.587-1.027-1.04 0-1.898.342-2.574 1.027-.676.685-1.014 1.564-1.014 2.639 0 1.075.338 1.959 1.014 2.652zm19.012-9.516c1.421 0 2.596.477 3.523 1.43s1.391 2.27 1.391 3.952V96h-3.354v-7.566c0-.867-.234-1.53-.702-1.989-.468-.46-1.092-.689-1.872-.689-.867 0-1.56.269-2.08.806s-.78 1.343-.78 2.418V96H41.41V83h3.354v1.456c.815-1.213 2.106-1.82 3.874-1.82zm14.54 0c1.75 0 3.246.663 4.485 1.989 1.24 1.326 1.859 2.951 1.859 4.875s-.62 3.549-1.859 4.875c-1.24 1.326-2.734 1.989-4.485 1.989-1.82 0-3.224-.633-4.212-1.898V96h-3.354V77.8h3.354v6.734c.988-1.265 2.392-1.898 4.212-1.898zm-3.198 9.516c.676.676 1.534 1.014 2.574 1.014 1.04 0 1.902-.342 2.587-1.027.685-.685 1.027-1.564 1.027-2.639 0-1.075-.342-1.954-1.027-2.639-.685-.685-1.547-1.027-2.587-1.027-1.04 0-1.898.342-2.574 1.027-.676.685-1.014 1.564-1.014 2.639 0 1.075.338 1.959 1.014 2.652zM79.668 83h3.354v13h-3.354v-1.456c-.815 1.213-2.106 1.82-3.874 1.82-1.421 0-2.596-.477-3.523-1.43s-1.391-2.27-1.391-3.952V83h3.354v7.566c0 .867.234 1.53.702 1.989.468.46 1.092.689 1.872.689.867 0 1.56-.269 2.08-.806s.78-1.343.78-2.418V83zm5.622 13V77.02h3.354V96H85.29z"/>
        <g fill-rule="nonzero">
            <path fill="url(#a)" d="M29.738.215c-2.456.011-4.8.222-6.864.59-6.079 1.082-7.182 3.347-7.182 7.524v5.516h14.364v1.84H10.302c-4.175 0-7.83 2.528-8.974 7.337-1.319 5.514-1.377 8.954 0 14.71 1.021 4.286 3.46 7.339 7.634 7.339H13.9v-6.613c0-4.777 4.102-8.992 8.973-8.992H37.22c3.994 0 7.182-3.313 7.182-7.355V8.33c0-3.922-3.284-6.87-7.182-7.524a44.468 44.468 0 0 0-7.483-.59zM21.97 4.652c1.483 0 2.695 1.24 2.695 2.766 0 1.52-1.212 2.75-2.695 2.75-1.49 0-2.696-1.23-2.696-2.75 0-1.526 1.207-2.766 2.696-2.766z" transform="translate(14.5)"/>
            <path fill="url(#b)" d="M46.194 15.684v6.427c0 4.983-4.192 9.177-8.973 9.177H22.874c-3.93 0-7.182 3.39-7.182 7.355v13.783c0 3.922 3.385 6.23 7.182 7.355 4.547 1.347 8.907 1.59 14.347 0 3.616-1.055 7.182-3.178 7.182-7.355V46.91H30.056v-1.84h21.529c4.174 0 5.73-2.933 7.182-7.337 1.5-4.534 1.435-8.894 0-14.71-1.032-4.188-3.002-7.339-7.182-7.339h-5.39zm-8.07 34.903c1.49 0 2.696 1.23 2.696 2.75 0 1.526-1.206 2.766-2.695 2.766-1.484 0-2.695-1.24-2.695-2.766 0-1.52 1.211-2.75 2.695-2.75z" transform="translate(14.5)"/>
        </g>
    </g>
</svg>
